<svg xmlns="http://www.w3.org/2000/svg" xmlns:xlink="http://www.w3.org/1999/xlink" width="171" zoomAndPan="magnify" viewBox="0 0 128.25 125.999998" height="168" preserveAspectRatio="xMidYMid meet" version="1.0"><defs><clipPath id="ecf38617fd"><path d="M 71 4 L 126.757812 4 L 126.757812 74 L 71 74 Z M 71 4 " clip-rule="nonzero"/></clipPath><clipPath id="ae0a576df3"><path d="M 71 4 L 126.757812 4 L 126.757812 74 L 71 74 Z M 71 4 " clip-rule="nonzero"/></clipPath></defs><g clip-path="url(#ecf38617fd)"><path fill="#dfafaf" d="M 122.273438 11.398438 C 114.824219 0.367188 101.378906 5.542969 91.960938 10.164062 C 85.167969 13.472656 78.597656 17.515625 72.480469 21.976562 C 67.839844 25.382812 77.003906 37.410156 81.78125 33.925781 C 87.558594 29.703125 93.734375 25.917969 100.085938 22.691406 C 100.664062 22.394531 101.242188 22.113281 101.820312 21.835938 C 101.898438 21.796875 102.117188 21.695312 102.277344 21.617188 C 102.457031 21.535156 102.636719 21.457031 102.8125 21.378906 C 104.050781 20.820312 105.304688 20.300781 106.578125 19.824219 C 108.789062 18.988281 111.078125 18.3125 113.410156 17.933594 C 113.847656 17.851562 114.304688 17.8125 114.746094 17.773438 C 114.722656 18.070312 114.703125 18.371094 114.664062 18.667969 C 114.546875 20.023438 114.304688 21.359375 114.027344 22.691406 C 113.648438 24.523438 113.429688 25.183594 112.773438 27.292969 C 109.824219 36.652344 105.441406 45.574219 100.902344 54.257812 C 100.644531 51.292969 100.382812 48.324219 100.125 45.335938 C 99.628906 39.519531 90.605469 39.5 91.125 45.375 C 91.800781 53.0625 92.457031 60.773438 93.117188 68.460938 C 93.3125 70.769531 95.046875 73.238281 97.636719 73.019531 C 105.265625 72.34375 112.851562 71.664062 120.480469 70.988281 C 126.234375 70.492188 126.253906 61.371094 120.441406 61.867188 C 117.832031 62.085938 115.203125 62.34375 112.574219 62.5625 C 117.613281 52.824219 122.253906 42.789062 125 32.152344 C 126.875 24.785156 126.59375 17.8125 122.273438 11.398438 Z M 122.273438 11.398438 " fill-opacity="1" fill-rule="nonzero"/></g><path fill="#dfafaf" d="M 89.789062 80.507812 C 83.039062 89.511719 76.265625 98.492188 69.515625 107.496094 C 63.0625 99.886719 56.628906 92.300781 50.175781 84.691406 C 52.585938 84.570312 54.996094 84.433594 57.40625 84.3125 C 62.863281 84.015625 62.882812 75.410156 57.386719 75.6875 C 50.675781 76.046875 43.960938 76.40625 37.25 76.765625 C 35.019531 76.882812 32.890625 78.65625 33.007812 81.085938 C 33.367188 88.15625 33.726562 95.226562 34.105469 102.316406 C 34.402344 107.832031 42.90625 107.855469 42.609375 102.296875 C 42.488281 99.726562 42.347656 97.179688 42.210938 94.609375 C 49.835938 103.613281 57.484375 112.613281 65.113281 121.617188 C 67.621094 124.582031 73.519531 125.597656 76.105469 122.152344 C 84.53125 110.941406 92.917969 99.746094 101.339844 88.554688 C 106.320312 81.941406 94.371094 74.394531 89.789062 80.507812 Z M 89.789062 80.507812 " fill-opacity="1" fill-rule="nonzero"/><path fill="#dfafaf" d="M 13.511719 23.925781 C 13.550781 23.667969 13.628906 23.148438 13.691406 22.910156 C 13.789062 22.472656 13.949219 22.074219 14.109375 21.65625 C 14.128906 21.578125 14.148438 21.535156 14.1875 21.476562 C 14.207031 21.4375 14.226562 21.417969 14.246094 21.398438 C 14.464844 21.058594 14.746094 20.761719 15.023438 20.480469 C 15.042969 20.460938 15.082031 20.441406 15.105469 20.421875 C 15.421875 20.242188 15.742188 20.101562 16.078125 19.964844 C 16.238281 19.925781 16.378906 19.882812 16.519531 19.882812 C 16.757812 19.84375 17.015625 19.804688 17.273438 19.785156 C 17.535156 19.804688 18.390625 19.804688 18.6875 19.824219 C 19.386719 19.882812 20.0625 20.023438 20.738281 20.164062 C 20.839844 20.183594 20.980469 20.222656 21.136719 20.261719 C 21.359375 20.320312 21.558594 20.382812 21.777344 20.441406 C 23.609375 20.980469 25.378906 21.65625 27.132812 22.394531 C 27.949219 22.730469 28.765625 23.109375 29.582031 23.488281 C 29.683594 23.527344 30.558594 23.945312 30.699219 24.027344 C 31.277344 24.324219 31.851562 24.605469 32.410156 24.902344 C 37.210938 27.414062 41.871094 30.261719 46.433594 33.207031 C 45.21875 33.308594 43.980469 33.425781 42.765625 33.527344 C 39.640625 33.804688 37.011719 35.996094 37.03125 39.382812 C 37.03125 42.371094 39.679688 45.476562 42.808594 45.199219 C 48.5625 44.679688 54.320312 44.183594 60.074219 43.664062 C 63.003906 43.40625 66.109375 41.175781 65.832031 37.828125 C 65.332031 31.992188 64.816406 26.175781 64.316406 20.34375 C 64.039062 17.175781 61.886719 14.527344 58.539062 14.527344 C 55.59375 14.527344 52.527344 17.195312 52.804688 20.382812 C 52.964844 22.195312 53.125 23.988281 53.28125 25.800781 C 52.824219 25.421875 52.367188 25.0625 51.910156 24.785156 C 42.507812 18.589844 32.449219 12.214844 21.636719 8.929688 C 15.742188 7.097656 8.570312 5.902344 3.652344 10.523438 C 0.167969 13.789062 0.105469 19.726562 0.683594 24.125 C 1.5 30.300781 3.375 36.214844 5.644531 42.011719 C 9.308594 51.332031 13.667969 60.472656 18.707031 69.117188 C 20.460938 72.144531 23.925781 75.050781 27.652344 74.574219 C 31.136719 74.117188 31.535156 70.230469 30.019531 67.621094 C 26.078125 60.851562 22.574219 53.761719 19.445312 46.550781 C 19.148438 45.875 18.867188 45.199219 18.570312 44.5 C 18.507812 44.382812 18.46875 44.28125 18.429688 44.160156 C 18.371094 43.984375 18.289062 43.785156 18.230469 43.664062 C 17.632812 42.171875 17.074219 40.675781 16.558594 39.164062 C 15.601562 36.394531 14.746094 33.605469 14.128906 30.757812 C 13.988281 30.140625 13.847656 29.484375 13.75 28.867188 C 13.730469 28.804688 13.730469 28.765625 13.730469 28.707031 C 13.730469 28.605469 13.691406 28.46875 13.667969 28.269531 C 13.53125 27.074219 13.449219 25.839844 13.492188 24.625 C 13.492188 24.425781 13.511719 24.1875 13.511719 23.925781 Z M 13.511719 23.925781 " fill-opacity="1" fill-rule="nonzero"/><g clip-path="url(#ae0a576df3)"><path fill="#dfafaf" d="M 122.273438 11.398438 C 114.824219 0.367188 101.378906 5.542969 91.960938 10.164062 C 85.167969 13.472656 78.597656 17.515625 72.480469 21.976562 C 67.839844 25.382812 77.003906 37.410156 81.78125 33.925781 C 87.558594 29.703125 93.734375 25.917969 100.085938 22.691406 C 100.664062 22.394531 101.242188 22.113281 101.820312 21.835938 C 101.898438 21.796875 102.117188 21.695312 102.277344 21.617188 C 102.457031 21.535156 102.636719 21.457031 102.8125 21.378906 C 104.050781 20.820312 105.304688 20.300781 106.578125 19.824219 C 108.789062 18.988281 111.078125 18.3125 113.410156 17.933594 C 113.847656 17.851562 114.304688 17.8125 114.746094 17.773438 C 114.722656 18.070312 114.703125 18.371094 114.664062 18.667969 C 114.546875 20.023438 114.304688 21.359375 114.027344 22.691406 C 113.648438 24.523438 113.429688 25.183594 112.773438 27.292969 C 109.824219 36.652344 105.441406 45.574219 100.902344 54.257812 C 100.644531 51.292969 100.382812 48.324219 100.125 45.335938 C 99.628906 39.519531 90.605469 39.5 91.125 45.375 C 91.800781 53.0625 92.457031 60.773438 93.117188 68.460938 C 93.3125 70.769531 95.046875 73.238281 97.636719 73.019531 C 105.265625 72.34375 112.851562 71.664062 120.480469 70.988281 C 126.234375 70.492188 126.253906 61.371094 120.441406 61.867188 C 117.832031 62.085938 115.203125 62.34375 112.574219 62.5625 C 117.613281 52.824219 122.253906 42.789062 125 32.152344 C 126.875 24.785156 126.59375 17.8125 122.273438 11.398438 Z M 122.273438 11.398438 " fill-opacity="1" fill-rule="nonzero"/></g><path fill="#dfafaf" d="M 89.789062 80.507812 C 83.039062 89.511719 76.265625 98.492188 69.515625 107.496094 C 63.0625 99.886719 56.628906 92.300781 50.175781 84.691406 C 52.585938 84.570312 54.996094 84.433594 57.40625 84.3125 C 62.863281 84.015625 62.882812 75.410156 57.386719 75.6875 C 50.675781 76.046875 43.960938 76.40625 37.25 76.765625 C 35.019531 76.882812 32.890625 78.65625 33.007812 81.085938 C 33.367188 88.15625 33.726562 95.226562 34.105469 102.316406 C 34.402344 107.832031 42.90625 107.855469 42.609375 102.296875 C 42.488281 99.726562 42.347656 97.179688 42.210938 94.609375 C 49.835938 103.613281 57.484375 112.613281 65.113281 121.617188 C 67.621094 124.582031 73.519531 125.597656 76.105469 122.152344 C 84.53125 110.941406 92.917969 99.746094 101.339844 88.554688 C 106.320312 81.941406 94.371094 74.394531 89.789062 80.507812 Z M 89.789062 80.507812 " fill-opacity="1" fill-rule="nonzero"/><path fill="#dfafaf" d="M 13.511719 23.925781 C 13.550781 23.667969 13.628906 23.148438 13.691406 22.910156 C 13.789062 22.472656 13.949219 22.074219 14.109375 21.65625 C 14.128906 21.578125 14.148438 21.535156 14.1875 21.476562 C 14.207031 21.4375 14.226562 21.417969 14.246094 21.398438 C 14.464844 21.058594 14.746094 20.761719 15.023438 20.480469 C 15.042969 20.460938 15.082031 20.441406 15.105469 20.421875 C 15.421875 20.242188 15.742188 20.101562 16.078125 19.964844 C 16.238281 19.925781 16.378906 19.882812 16.519531 19.882812 C 16.757812 19.84375 17.015625 19.804688 17.273438 19.785156 C 17.535156 19.804688 18.390625 19.804688 18.6875 19.824219 C 19.386719 19.882812 20.0625 20.023438 20.738281 20.164062 C 20.839844 20.183594 20.980469 20.222656 21.136719 20.261719 C 21.359375 20.320312 21.558594 20.382812 21.777344 20.441406 C 23.609375 20.980469 25.378906 21.65625 27.132812 22.394531 C 27.949219 22.730469 28.765625 23.109375 29.582031 23.488281 C 29.683594 23.527344 30.558594 23.945312 30.699219 24.027344 C 31.277344 24.324219 31.851562 24.605469 32.410156 24.902344 C 37.210938 27.414062 41.871094 30.261719 46.433594 33.207031 C 45.21875 33.308594 43.980469 33.425781 42.765625 33.527344 C 39.640625 33.804688 37.011719 35.996094 37.03125 39.382812 C 37.03125 42.371094 39.679688 45.476562 42.808594 45.199219 C 48.5625 44.679688 54.320312 44.183594 60.074219 43.664062 C 63.003906 43.40625 66.109375 41.175781 65.832031 37.828125 C 65.332031 31.992188 64.816406 26.175781 64.316406 20.34375 C 64.039062 17.175781 61.886719 14.527344 58.539062 14.527344 C 55.59375 14.527344 52.527344 17.195312 52.804688 20.382812 C 52.964844 22.195312 53.125 23.988281 53.28125 25.800781 C 52.824219 25.421875 52.367188 25.0625 51.910156 24.785156 C 42.507812 18.589844 32.449219 12.214844 21.636719 8.929688 C 15.742188 7.097656 8.570312 5.902344 3.652344 10.523438 C 0.167969 13.789062 0.105469 19.726562 0.683594 24.125 C 1.5 30.300781 3.375 36.214844 5.644531 42.011719 C 9.308594 51.332031 13.667969 60.472656 18.707031 69.117188 C 20.460938 72.144531 23.925781 75.050781 27.652344 74.574219 C 31.136719 74.117188 31.535156 70.230469 30.019531 67.621094 C 26.078125 60.851562 22.574219 53.761719 19.445312 46.550781 C 19.148438 45.875 18.867188 45.199219 18.570312 44.5 C 18.507812 44.382812 18.46875 44.28125 18.429688 44.160156 C 18.371094 43.984375 18.289062 43.785156 18.230469 43.664062 C 17.632812 42.171875 17.074219 40.675781 16.558594 39.164062 C 15.601562 36.394531 14.746094 33.605469 14.128906 30.757812 C 13.988281 30.140625 13.847656 29.484375 13.75 28.867188 C 13.730469 28.804688 13.730469 28.765625 13.730469 28.707031 C 13.730469 28.605469 13.691406 28.46875 13.667969 28.269531 C 13.53125 27.074219 13.449219 25.839844 13.492188 24.625 C 13.492188 24.425781 13.511719 24.1875 13.511719 23.925781 Z M 13.511719 23.925781 " fill-opacity="1" fill-rule="nonzero"/></svg>